<mxfile host="app.diagrams.net" modified="2024-05-22T22:46:53.273Z" agent="Mozilla/5.0 (Windows NT 10.0; Win64; x64) AppleWebKit/537.36 (KHTML, like Gecko) Chrome/125.0.0.0 Safari/537.36" etag="hYdocCSYd1lFrdd2x_UA" version="24.4.6" type="device">
  <diagram name="Page-1" id="b520641d-4fe3-3701-9064-5fc419738815">
    <mxGraphModel dx="3187" dy="5116" grid="1" gridSize="10" guides="1" tooltips="1" connect="1" arrows="1" fold="1" page="1" pageScale="1" pageWidth="1100" pageHeight="850" background="none" math="0" shadow="0">
      <root>
        <mxCell id="0" />
        <mxCell id="1" parent="0" />
        <mxCell id="clQgSgbDN8U7DZsC-t68-5" value="Usuário" style="swimlane;fontStyle=0;childLayout=stackLayout;horizontal=1;startSize=26;fillColor=none;horizontalStack=0;resizeParent=1;resizeParentMax=0;resizeLast=0;collapsible=1;marginBottom=0;whiteSpace=wrap;html=1;" parent="1" vertex="1">
          <mxGeometry x="490" y="-2660" width="140" height="152" as="geometry" />
        </mxCell>
        <mxCell id="clQgSgbDN8U7DZsC-t68-15" value="Nome" style="text;strokeColor=none;fillColor=none;align=left;verticalAlign=top;spacingLeft=4;spacingRight=4;overflow=hidden;rotatable=0;points=[[0,0.5],[1,0.5]];portConstraint=eastwest;whiteSpace=wrap;html=1;" parent="clQgSgbDN8U7DZsC-t68-5" vertex="1">
          <mxGeometry y="26" width="140" height="26" as="geometry" />
        </mxCell>
        <mxCell id="clQgSgbDN8U7DZsC-t68-6" value="Email" style="text;strokeColor=none;fillColor=none;align=left;verticalAlign=top;spacingLeft=4;spacingRight=4;overflow=hidden;rotatable=0;points=[[0,0.5],[1,0.5]];portConstraint=eastwest;whiteSpace=wrap;html=1;" parent="clQgSgbDN8U7DZsC-t68-5" vertex="1">
          <mxGeometry y="52" width="140" height="26" as="geometry" />
        </mxCell>
        <mxCell id="clQgSgbDN8U7DZsC-t68-7" value="Senha&lt;div&gt;&lt;br&gt;&lt;/div&gt;" style="text;strokeColor=none;fillColor=none;align=left;verticalAlign=top;spacingLeft=4;spacingRight=4;overflow=hidden;rotatable=0;points=[[0,0.5],[1,0.5]];portConstraint=eastwest;whiteSpace=wrap;html=1;" parent="clQgSgbDN8U7DZsC-t68-5" vertex="1">
          <mxGeometry y="78" width="140" height="26" as="geometry" />
        </mxCell>
        <mxCell id="clQgSgbDN8U7DZsC-t68-20" value="Data de Nascimento&amp;nbsp;" style="text;strokeColor=none;fillColor=none;align=left;verticalAlign=top;spacingLeft=4;spacingRight=4;overflow=hidden;rotatable=0;points=[[0,0.5],[1,0.5]];portConstraint=eastwest;whiteSpace=wrap;html=1;" parent="clQgSgbDN8U7DZsC-t68-5" vertex="1">
          <mxGeometry y="104" width="140" height="22" as="geometry" />
        </mxCell>
        <mxCell id="rrzI_8woT9w4Hoa1EaJm-2" value="&lt;span style=&quot;color: rgb(0, 0, 0); font-family: Helvetica; font-size: 12px; font-style: normal; font-variant-ligatures: normal; font-variant-caps: normal; font-weight: 400; letter-spacing: normal; orphans: 2; text-align: left; text-indent: 0px; text-transform: none; widows: 2; word-spacing: 0px; -webkit-text-stroke-width: 0px; white-space: normal; background-color: rgb(251, 251, 251); text-decoration-thickness: initial; text-decoration-style: initial; text-decoration-color: initial; display: inline !important; float: none;&quot;&gt;Tipo de Usuário&lt;/span&gt;" style="text;whiteSpace=wrap;html=1;" vertex="1" parent="clQgSgbDN8U7DZsC-t68-5">
          <mxGeometry y="126" width="140" height="26" as="geometry" />
        </mxCell>
        <mxCell id="clQgSgbDN8U7DZsC-t68-25" value="Pedido" style="swimlane;fontStyle=0;childLayout=stackLayout;horizontal=1;startSize=26;fillColor=none;horizontalStack=0;resizeParent=1;resizeParentMax=0;resizeLast=0;collapsible=1;marginBottom=0;whiteSpace=wrap;html=1;" parent="1" vertex="1">
          <mxGeometry x="720" y="-2140" width="140" height="156" as="geometry" />
        </mxCell>
        <mxCell id="clQgSgbDN8U7DZsC-t68-26" value="Número do pedido" style="text;strokeColor=none;fillColor=none;align=left;verticalAlign=top;spacingLeft=4;spacingRight=4;overflow=hidden;rotatable=0;points=[[0,0.5],[1,0.5]];portConstraint=eastwest;whiteSpace=wrap;html=1;" parent="clQgSgbDN8U7DZsC-t68-25" vertex="1">
          <mxGeometry y="26" width="140" height="26" as="geometry" />
        </mxCell>
        <mxCell id="clQgSgbDN8U7DZsC-t68-27" value="Data&amp;nbsp;" style="text;strokeColor=none;fillColor=none;align=left;verticalAlign=top;spacingLeft=4;spacingRight=4;overflow=hidden;rotatable=0;points=[[0,0.5],[1,0.5]];portConstraint=eastwest;whiteSpace=wrap;html=1;" parent="clQgSgbDN8U7DZsC-t68-25" vertex="1">
          <mxGeometry y="52" width="140" height="26" as="geometry" />
        </mxCell>
        <mxCell id="clQgSgbDN8U7DZsC-t68-28" value="Hora" style="text;strokeColor=none;fillColor=none;align=left;verticalAlign=top;spacingLeft=4;spacingRight=4;overflow=hidden;rotatable=0;points=[[0,0.5],[1,0.5]];portConstraint=eastwest;whiteSpace=wrap;html=1;" parent="clQgSgbDN8U7DZsC-t68-25" vertex="1">
          <mxGeometry y="78" width="140" height="26" as="geometry" />
        </mxCell>
        <mxCell id="clQgSgbDN8U7DZsC-t68-75" value="Tipo de entrega" style="text;strokeColor=none;fillColor=none;align=left;verticalAlign=top;spacingLeft=4;spacingRight=4;overflow=hidden;rotatable=0;points=[[0,0.5],[1,0.5]];portConstraint=eastwest;whiteSpace=wrap;html=1;" parent="clQgSgbDN8U7DZsC-t68-25" vertex="1">
          <mxGeometry y="104" width="140" height="26" as="geometry" />
        </mxCell>
        <mxCell id="clQgSgbDN8U7DZsC-t68-29" value="ID do usuario" style="text;strokeColor=none;fillColor=none;align=left;verticalAlign=top;spacingLeft=4;spacingRight=4;overflow=hidden;rotatable=0;points=[[0,0.5],[1,0.5]];portConstraint=eastwest;whiteSpace=wrap;html=1;" parent="clQgSgbDN8U7DZsC-t68-25" vertex="1">
          <mxGeometry y="130" width="140" height="26" as="geometry" />
        </mxCell>
        <mxCell id="clQgSgbDN8U7DZsC-t68-30" value="Endereço" style="swimlane;fontStyle=0;childLayout=stackLayout;horizontal=1;startSize=26;fillColor=none;horizontalStack=0;resizeParent=1;resizeParentMax=0;resizeLast=0;collapsible=1;marginBottom=0;whiteSpace=wrap;html=1;" parent="1" vertex="1">
          <mxGeometry x="970" y="-2140" width="140" height="130" as="geometry" />
        </mxCell>
        <mxCell id="clQgSgbDN8U7DZsC-t68-31" value="Cidade" style="text;strokeColor=none;fillColor=none;align=left;verticalAlign=top;spacingLeft=4;spacingRight=4;overflow=hidden;rotatable=0;points=[[0,0.5],[1,0.5]];portConstraint=eastwest;whiteSpace=wrap;html=1;" parent="clQgSgbDN8U7DZsC-t68-30" vertex="1">
          <mxGeometry y="26" width="140" height="26" as="geometry" />
        </mxCell>
        <mxCell id="clQgSgbDN8U7DZsC-t68-32" value="CEP" style="text;strokeColor=none;fillColor=none;align=left;verticalAlign=top;spacingLeft=4;spacingRight=4;overflow=hidden;rotatable=0;points=[[0,0.5],[1,0.5]];portConstraint=eastwest;whiteSpace=wrap;html=1;" parent="clQgSgbDN8U7DZsC-t68-30" vertex="1">
          <mxGeometry y="52" width="140" height="26" as="geometry" />
        </mxCell>
        <mxCell id="clQgSgbDN8U7DZsC-t68-33" value="Rua" style="text;strokeColor=none;fillColor=none;align=left;verticalAlign=top;spacingLeft=4;spacingRight=4;overflow=hidden;rotatable=0;points=[[0,0.5],[1,0.5]];portConstraint=eastwest;whiteSpace=wrap;html=1;" parent="clQgSgbDN8U7DZsC-t68-30" vertex="1">
          <mxGeometry y="78" width="140" height="26" as="geometry" />
        </mxCell>
        <mxCell id="clQgSgbDN8U7DZsC-t68-34" value="Número do endereço" style="text;strokeColor=none;fillColor=none;align=left;verticalAlign=top;spacingLeft=4;spacingRight=4;overflow=hidden;rotatable=0;points=[[0,0.5],[1,0.5]];portConstraint=eastwest;whiteSpace=wrap;html=1;" parent="clQgSgbDN8U7DZsC-t68-30" vertex="1">
          <mxGeometry y="104" width="140" height="26" as="geometry" />
        </mxCell>
        <mxCell id="clQgSgbDN8U7DZsC-t68-35" value="Avaliação" style="swimlane;fontStyle=0;childLayout=stackLayout;horizontal=1;startSize=26;fillColor=none;horizontalStack=0;resizeParent=1;resizeParentMax=0;resizeLast=0;collapsible=1;marginBottom=0;whiteSpace=wrap;html=1;" parent="1" vertex="1">
          <mxGeometry x="970" y="-1980" width="140" height="104" as="geometry" />
        </mxCell>
        <mxCell id="clQgSgbDN8U7DZsC-t68-36" value="Avaliação do pedido" style="text;strokeColor=none;fillColor=none;align=left;verticalAlign=top;spacingLeft=4;spacingRight=4;overflow=hidden;rotatable=0;points=[[0,0.5],[1,0.5]];portConstraint=eastwest;whiteSpace=wrap;html=1;" parent="clQgSgbDN8U7DZsC-t68-35" vertex="1">
          <mxGeometry y="26" width="140" height="26" as="geometry" />
        </mxCell>
        <mxCell id="clQgSgbDN8U7DZsC-t68-37" value="Avaliação da entrega" style="text;strokeColor=none;fillColor=none;align=left;verticalAlign=top;spacingLeft=4;spacingRight=4;overflow=hidden;rotatable=0;points=[[0,0.5],[1,0.5]];portConstraint=eastwest;whiteSpace=wrap;html=1;" parent="clQgSgbDN8U7DZsC-t68-35" vertex="1">
          <mxGeometry y="52" width="140" height="26" as="geometry" />
        </mxCell>
        <mxCell id="clQgSgbDN8U7DZsC-t68-38" value="Comentários&lt;div&gt;&lt;br&gt;&lt;/div&gt;" style="text;strokeColor=none;fillColor=none;align=left;verticalAlign=top;spacingLeft=4;spacingRight=4;overflow=hidden;rotatable=0;points=[[0,0.5],[1,0.5]];portConstraint=eastwest;whiteSpace=wrap;html=1;" parent="clQgSgbDN8U7DZsC-t68-35" vertex="1">
          <mxGeometry y="78" width="140" height="26" as="geometry" />
        </mxCell>
        <mxCell id="clQgSgbDN8U7DZsC-t68-73" style="edgeStyle=orthogonalEdgeStyle;rounded=0;orthogonalLoop=1;jettySize=auto;html=1;endArrow=none;endFill=0;" parent="1" source="clQgSgbDN8U7DZsC-t68-43" edge="1">
          <mxGeometry relative="1" as="geometry">
            <mxPoint x="720" y="-2075" as="targetPoint" />
            <Array as="points">
              <mxPoint x="670" y="-2206" />
              <mxPoint x="670" y="-2075" />
            </Array>
          </mxGeometry>
        </mxCell>
        <mxCell id="rrzI_8woT9w4Hoa1EaJm-16" value="1,*" style="edgeLabel;html=1;align=center;verticalAlign=middle;resizable=0;points=[];" vertex="1" connectable="0" parent="clQgSgbDN8U7DZsC-t68-73">
          <mxGeometry x="-0.854" y="2" relative="1" as="geometry">
            <mxPoint as="offset" />
          </mxGeometry>
        </mxCell>
        <mxCell id="clQgSgbDN8U7DZsC-t68-43" value="Livro" style="swimlane;fontStyle=0;childLayout=stackLayout;horizontal=1;startSize=26;fillColor=none;horizontalStack=0;resizeParent=1;resizeParentMax=0;resizeLast=0;collapsible=1;marginBottom=0;whiteSpace=wrap;html=1;" parent="1" vertex="1">
          <mxGeometry x="480" y="-2272" width="140" height="132" as="geometry" />
        </mxCell>
        <mxCell id="clQgSgbDN8U7DZsC-t68-108" value="Autor" style="text;strokeColor=none;fillColor=none;align=left;verticalAlign=top;spacingLeft=4;spacingRight=4;overflow=hidden;rotatable=0;points=[[0,0.5],[1,0.5]];portConstraint=eastwest;whiteSpace=wrap;html=1;" parent="clQgSgbDN8U7DZsC-t68-43" vertex="1">
          <mxGeometry y="26" width="140" height="26" as="geometry" />
        </mxCell>
        <mxCell id="clQgSgbDN8U7DZsC-t68-109" value="ISBN" style="text;strokeColor=none;fillColor=none;align=left;verticalAlign=top;spacingLeft=4;spacingRight=4;overflow=hidden;rotatable=0;points=[[0,0.5],[1,0.5]];portConstraint=eastwest;whiteSpace=wrap;html=1;" parent="clQgSgbDN8U7DZsC-t68-43" vertex="1">
          <mxGeometry y="52" width="140" height="26" as="geometry" />
        </mxCell>
        <mxCell id="clQgSgbDN8U7DZsC-t68-110" value="Disponibilidade" style="text;strokeColor=none;fillColor=none;align=left;verticalAlign=top;spacingLeft=4;spacingRight=4;overflow=hidden;rotatable=0;points=[[0,0.5],[1,0.5]];portConstraint=eastwest;whiteSpace=wrap;html=1;" parent="clQgSgbDN8U7DZsC-t68-43" vertex="1">
          <mxGeometry y="78" width="140" height="26" as="geometry" />
        </mxCell>
        <mxCell id="clQgSgbDN8U7DZsC-t68-44" value="Nome" style="text;strokeColor=none;fillColor=none;align=left;verticalAlign=top;spacingLeft=4;spacingRight=4;overflow=hidden;rotatable=0;points=[[0,0.5],[1,0.5]];portConstraint=eastwest;whiteSpace=wrap;html=1;" parent="clQgSgbDN8U7DZsC-t68-43" vertex="1">
          <mxGeometry y="104" width="140" height="26" as="geometry" />
        </mxCell>
        <mxCell id="clQgSgbDN8U7DZsC-t68-46" value="&lt;div&gt;&lt;br&gt;&lt;/div&gt;" style="text;strokeColor=none;fillColor=none;align=left;verticalAlign=top;spacingLeft=4;spacingRight=4;overflow=hidden;rotatable=0;points=[[0,0.5],[1,0.5]];portConstraint=eastwest;whiteSpace=wrap;html=1;" parent="clQgSgbDN8U7DZsC-t68-43" vertex="1">
          <mxGeometry y="130" width="140" height="2" as="geometry" />
        </mxCell>
        <mxCell id="clQgSgbDN8U7DZsC-t68-59" style="edgeStyle=orthogonalEdgeStyle;rounded=0;orthogonalLoop=1;jettySize=auto;html=1;entryX=0;entryY=0.5;entryDx=0;entryDy=0;endArrow=none;endFill=0;" parent="1" source="clQgSgbDN8U7DZsC-t68-27" target="clQgSgbDN8U7DZsC-t68-32" edge="1">
          <mxGeometry relative="1" as="geometry" />
        </mxCell>
        <mxCell id="clQgSgbDN8U7DZsC-t68-104" value="0,1" style="edgeLabel;html=1;align=center;verticalAlign=middle;resizable=0;points=[];" parent="clQgSgbDN8U7DZsC-t68-59" vertex="1" connectable="0">
          <mxGeometry x="0.4571" y="2" relative="1" as="geometry">
            <mxPoint as="offset" />
          </mxGeometry>
        </mxCell>
        <mxCell id="rrzI_8woT9w4Hoa1EaJm-19" value="*,1" style="edgeLabel;html=1;align=center;verticalAlign=middle;resizable=0;points=[];" vertex="1" connectable="0" parent="clQgSgbDN8U7DZsC-t68-59">
          <mxGeometry x="-0.5806" y="-1" relative="1" as="geometry">
            <mxPoint as="offset" />
          </mxGeometry>
        </mxCell>
        <mxCell id="clQgSgbDN8U7DZsC-t68-60" style="edgeStyle=orthogonalEdgeStyle;rounded=0;orthogonalLoop=1;jettySize=auto;html=1;entryX=0;entryY=0.5;entryDx=0;entryDy=0;exitX=1;exitY=0.5;exitDx=0;exitDy=0;endArrow=none;endFill=0;" parent="1" edge="1">
          <mxGeometry relative="1" as="geometry">
            <mxPoint x="860" y="-2036" as="sourcePoint" />
            <mxPoint x="970" y="-1876" as="targetPoint" />
            <Array as="points">
              <mxPoint x="860" y="-2031" />
              <mxPoint x="915" y="-2031" />
              <mxPoint x="915" y="-1910" />
              <mxPoint x="970" y="-1910" />
            </Array>
          </mxGeometry>
        </mxCell>
        <mxCell id="clQgSgbDN8U7DZsC-t68-105" value="1,*" style="edgeLabel;html=1;align=center;verticalAlign=middle;resizable=0;points=[];" parent="clQgSgbDN8U7DZsC-t68-60" vertex="1" connectable="0">
          <mxGeometry x="-0.9113" y="2" relative="1" as="geometry">
            <mxPoint x="13" y="3" as="offset" />
          </mxGeometry>
        </mxCell>
        <mxCell id="clQgSgbDN8U7DZsC-t68-106" value="0,1" style="edgeLabel;html=1;align=center;verticalAlign=middle;resizable=0;points=[];" parent="clQgSgbDN8U7DZsC-t68-60" vertex="1" connectable="0">
          <mxGeometry x="0.5228" relative="1" as="geometry">
            <mxPoint as="offset" />
          </mxGeometry>
        </mxCell>
        <mxCell id="clQgSgbDN8U7DZsC-t68-128" style="edgeStyle=orthogonalEdgeStyle;rounded=0;orthogonalLoop=1;jettySize=auto;html=1;endArrow=block;endFill=0;" parent="1" source="clQgSgbDN8U7DZsC-t68-61" target="clQgSgbDN8U7DZsC-t68-5" edge="1">
          <mxGeometry relative="1" as="geometry">
            <mxPoint x="590" y="-2490" as="targetPoint" />
            <Array as="points">
              <mxPoint x="240" y="-2460" />
              <mxPoint x="561" y="-2460" />
            </Array>
          </mxGeometry>
        </mxCell>
        <mxCell id="rrzI_8woT9w4Hoa1EaJm-3" value="1,1" style="edgeLabel;html=1;align=center;verticalAlign=middle;resizable=0;points=[];" vertex="1" connectable="0" parent="clQgSgbDN8U7DZsC-t68-128">
          <mxGeometry x="-0.6284" y="1" relative="1" as="geometry">
            <mxPoint as="offset" />
          </mxGeometry>
        </mxCell>
        <mxCell id="clQgSgbDN8U7DZsC-t68-61" value="Funcionário" style="swimlane;fontStyle=0;childLayout=stackLayout;horizontal=1;startSize=26;fillColor=none;horizontalStack=0;resizeParent=1;resizeParentMax=0;resizeLast=0;collapsible=1;marginBottom=0;whiteSpace=wrap;html=1;" parent="1" vertex="1">
          <mxGeometry x="170" y="-2440" width="140" height="126" as="geometry" />
        </mxCell>
        <mxCell id="clQgSgbDN8U7DZsC-t68-62" value="ID funcionário" style="text;strokeColor=none;fillColor=none;align=left;verticalAlign=top;spacingLeft=4;spacingRight=4;overflow=hidden;rotatable=0;points=[[0,0.5],[1,0.5]];portConstraint=eastwest;whiteSpace=wrap;html=1;" parent="clQgSgbDN8U7DZsC-t68-61" vertex="1">
          <mxGeometry y="26" width="140" height="26" as="geometry" />
        </mxCell>
        <mxCell id="clQgSgbDN8U7DZsC-t68-63" value="Nome" style="text;strokeColor=none;fillColor=none;align=left;verticalAlign=top;spacingLeft=4;spacingRight=4;overflow=hidden;rotatable=0;points=[[0,0.5],[1,0.5]];portConstraint=eastwest;whiteSpace=wrap;html=1;" parent="clQgSgbDN8U7DZsC-t68-61" vertex="1">
          <mxGeometry y="52" width="140" height="26" as="geometry" />
        </mxCell>
        <mxCell id="rrzI_8woT9w4Hoa1EaJm-31" value="Cargo" style="text;strokeColor=none;fillColor=none;align=left;verticalAlign=top;spacingLeft=4;spacingRight=4;overflow=hidden;rotatable=0;points=[[0,0.5],[1,0.5]];portConstraint=eastwest;whiteSpace=wrap;html=1;" vertex="1" parent="clQgSgbDN8U7DZsC-t68-61">
          <mxGeometry y="78" width="140" height="22" as="geometry" />
        </mxCell>
        <mxCell id="clQgSgbDN8U7DZsC-t68-64" value="Departamento" style="text;strokeColor=none;fillColor=none;align=left;verticalAlign=top;spacingLeft=4;spacingRight=4;overflow=hidden;rotatable=0;points=[[0,0.5],[1,0.5]];portConstraint=eastwest;whiteSpace=wrap;html=1;" parent="clQgSgbDN8U7DZsC-t68-61" vertex="1">
          <mxGeometry y="100" width="140" height="26" as="geometry" />
        </mxCell>
        <mxCell id="clQgSgbDN8U7DZsC-t68-91" value="Logística" style="swimlane;fontStyle=0;childLayout=stackLayout;horizontal=1;startSize=26;fillColor=none;horizontalStack=0;resizeParent=1;resizeParentMax=0;resizeLast=0;collapsible=1;marginBottom=0;whiteSpace=wrap;html=1;" parent="1" vertex="1">
          <mxGeometry x="70" y="-2244" width="140" height="78" as="geometry" />
        </mxCell>
        <mxCell id="rrzI_8woT9w4Hoa1EaJm-22" value="Identificador" style="text;strokeColor=none;fillColor=none;align=left;verticalAlign=top;spacingLeft=4;spacingRight=4;overflow=hidden;rotatable=0;points=[[0,0.5],[1,0.5]];portConstraint=eastwest;whiteSpace=wrap;html=1;" vertex="1" parent="clQgSgbDN8U7DZsC-t68-91">
          <mxGeometry y="26" width="140" height="26" as="geometry" />
        </mxCell>
        <mxCell id="clQgSgbDN8U7DZsC-t68-94" value="Responsável" style="text;strokeColor=none;fillColor=none;align=left;verticalAlign=top;spacingLeft=4;spacingRight=4;overflow=hidden;rotatable=0;points=[[0,0.5],[1,0.5]];portConstraint=eastwest;whiteSpace=wrap;html=1;" parent="clQgSgbDN8U7DZsC-t68-91" vertex="1">
          <mxGeometry y="52" width="140" height="26" as="geometry" />
        </mxCell>
        <mxCell id="clQgSgbDN8U7DZsC-t68-95" value="Financeira" style="swimlane;fontStyle=0;childLayout=stackLayout;horizontal=1;startSize=26;fillColor=none;horizontalStack=0;resizeParent=1;resizeParentMax=0;resizeLast=0;collapsible=1;marginBottom=0;whiteSpace=wrap;html=1;" parent="1" vertex="1">
          <mxGeometry x="260" y="-2244" width="140" height="78" as="geometry" />
        </mxCell>
        <mxCell id="clQgSgbDN8U7DZsC-t68-96" value="Gestor" style="text;strokeColor=none;fillColor=none;align=left;verticalAlign=top;spacingLeft=4;spacingRight=4;overflow=hidden;rotatable=0;points=[[0,0.5],[1,0.5]];portConstraint=eastwest;whiteSpace=wrap;html=1;" parent="clQgSgbDN8U7DZsC-t68-95" vertex="1">
          <mxGeometry y="26" width="140" height="26" as="geometry" />
        </mxCell>
        <mxCell id="rrzI_8woT9w4Hoa1EaJm-23" value="Departamento" style="text;strokeColor=none;fillColor=none;align=left;verticalAlign=top;spacingLeft=4;spacingRight=4;overflow=hidden;rotatable=0;points=[[0,0.5],[1,0.5]];portConstraint=eastwest;whiteSpace=wrap;html=1;" vertex="1" parent="clQgSgbDN8U7DZsC-t68-95">
          <mxGeometry y="52" width="140" height="26" as="geometry" />
        </mxCell>
        <mxCell id="clQgSgbDN8U7DZsC-t68-130" style="edgeStyle=orthogonalEdgeStyle;rounded=0;orthogonalLoop=1;jettySize=auto;html=1;endArrow=none;endFill=0;" parent="1" source="clQgSgbDN8U7DZsC-t68-99" edge="1">
          <mxGeometry relative="1" as="geometry">
            <mxPoint x="560" y="-2460" as="targetPoint" />
            <Array as="points">
              <mxPoint x="790" y="-2460" />
            </Array>
          </mxGeometry>
        </mxCell>
        <mxCell id="rrzI_8woT9w4Hoa1EaJm-4" value="1,1" style="edgeLabel;html=1;align=center;verticalAlign=middle;resizable=0;points=[];" vertex="1" connectable="0" parent="clQgSgbDN8U7DZsC-t68-130">
          <mxGeometry x="-0.68" y="-1" relative="1" as="geometry">
            <mxPoint as="offset" />
          </mxGeometry>
        </mxCell>
        <mxCell id="rrzI_8woT9w4Hoa1EaJm-28" style="edgeStyle=orthogonalEdgeStyle;rounded=0;orthogonalLoop=1;jettySize=auto;html=1;entryX=0.5;entryY=0;entryDx=0;entryDy=0;endArrow=none;endFill=0;" edge="1" parent="1" source="clQgSgbDN8U7DZsC-t68-99" target="clQgSgbDN8U7DZsC-t68-30">
          <mxGeometry relative="1" as="geometry" />
        </mxCell>
        <mxCell id="rrzI_8woT9w4Hoa1EaJm-29" value="1,*" style="edgeLabel;html=1;align=center;verticalAlign=middle;resizable=0;points=[];" vertex="1" connectable="0" parent="rrzI_8woT9w4Hoa1EaJm-28">
          <mxGeometry x="-0.7821" y="1" relative="1" as="geometry">
            <mxPoint as="offset" />
          </mxGeometry>
        </mxCell>
        <mxCell id="clQgSgbDN8U7DZsC-t68-99" value="Cliente" style="swimlane;fontStyle=0;childLayout=stackLayout;horizontal=1;startSize=26;fillColor=none;horizontalStack=0;resizeParent=1;resizeParentMax=0;resizeLast=0;collapsible=1;marginBottom=0;whiteSpace=wrap;html=1;" parent="1" vertex="1">
          <mxGeometry x="720" y="-2370" width="140" height="156" as="geometry" />
        </mxCell>
        <mxCell id="clQgSgbDN8U7DZsC-t68-100" value="RG" style="text;strokeColor=none;fillColor=none;align=left;verticalAlign=top;spacingLeft=4;spacingRight=4;overflow=hidden;rotatable=0;points=[[0,0.5],[1,0.5]];portConstraint=eastwest;whiteSpace=wrap;html=1;" parent="clQgSgbDN8U7DZsC-t68-99" vertex="1">
          <mxGeometry y="26" width="140" height="26" as="geometry" />
        </mxCell>
        <mxCell id="clQgSgbDN8U7DZsC-t68-101" value="CPF" style="text;strokeColor=none;fillColor=none;align=left;verticalAlign=top;spacingLeft=4;spacingRight=4;overflow=hidden;rotatable=0;points=[[0,0.5],[1,0.5]];portConstraint=eastwest;whiteSpace=wrap;html=1;" parent="clQgSgbDN8U7DZsC-t68-99" vertex="1">
          <mxGeometry y="52" width="140" height="26" as="geometry" />
        </mxCell>
        <mxCell id="rrzI_8woT9w4Hoa1EaJm-5" value="Nome" style="text;strokeColor=none;fillColor=none;align=left;verticalAlign=top;spacingLeft=4;spacingRight=4;overflow=hidden;rotatable=0;points=[[0,0.5],[1,0.5]];portConstraint=eastwest;whiteSpace=wrap;html=1;" vertex="1" parent="clQgSgbDN8U7DZsC-t68-99">
          <mxGeometry y="78" width="140" height="26" as="geometry" />
        </mxCell>
        <mxCell id="rrzI_8woT9w4Hoa1EaJm-6" value="Email" style="text;strokeColor=none;fillColor=none;align=left;verticalAlign=top;spacingLeft=4;spacingRight=4;overflow=hidden;rotatable=0;points=[[0,0.5],[1,0.5]];portConstraint=eastwest;whiteSpace=wrap;html=1;" vertex="1" parent="clQgSgbDN8U7DZsC-t68-99">
          <mxGeometry y="104" width="140" height="26" as="geometry" />
        </mxCell>
        <mxCell id="clQgSgbDN8U7DZsC-t68-102" value="Telefone" style="text;strokeColor=none;fillColor=none;align=left;verticalAlign=top;spacingLeft=4;spacingRight=4;overflow=hidden;rotatable=0;points=[[0,0.5],[1,0.5]];portConstraint=eastwest;whiteSpace=wrap;html=1;" parent="clQgSgbDN8U7DZsC-t68-99" vertex="1">
          <mxGeometry y="130" width="140" height="26" as="geometry" />
        </mxCell>
        <mxCell id="clQgSgbDN8U7DZsC-t68-107" style="edgeStyle=orthogonalEdgeStyle;rounded=0;orthogonalLoop=1;jettySize=auto;html=1;" parent="1" source="clQgSgbDN8U7DZsC-t68-99" target="clQgSgbDN8U7DZsC-t68-35" edge="1">
          <mxGeometry relative="1" as="geometry">
            <mxPoint x="870" y="-2310.06" as="sourcePoint" />
            <mxPoint x="1120" y="-1920.06" as="targetPoint" />
            <Array as="points">
              <mxPoint x="1200" y="-2309" />
              <mxPoint x="1200" y="-1920" />
            </Array>
          </mxGeometry>
        </mxCell>
        <mxCell id="rrzI_8woT9w4Hoa1EaJm-7" value="1,*" style="edgeLabel;html=1;align=center;verticalAlign=middle;resizable=0;points=[];" vertex="1" connectable="0" parent="clQgSgbDN8U7DZsC-t68-107">
          <mxGeometry x="-0.8973" y="-4" relative="1" as="geometry">
            <mxPoint x="138" y="124" as="offset" />
          </mxGeometry>
        </mxCell>
        <mxCell id="clQgSgbDN8U7DZsC-t68-111" value="Avaliação dos produtos" style="swimlane;fontStyle=0;childLayout=stackLayout;horizontal=1;startSize=26;fillColor=none;horizontalStack=0;resizeParent=1;resizeParentMax=0;resizeLast=0;collapsible=1;marginBottom=0;whiteSpace=wrap;html=1;" parent="1" vertex="1">
          <mxGeometry x="70" y="-1920" width="140" height="104" as="geometry" />
        </mxCell>
        <mxCell id="clQgSgbDN8U7DZsC-t68-112" value="ID da avaliação" style="text;strokeColor=none;fillColor=none;align=left;verticalAlign=top;spacingLeft=4;spacingRight=4;overflow=hidden;rotatable=0;points=[[0,0.5],[1,0.5]];portConstraint=eastwest;whiteSpace=wrap;html=1;" parent="clQgSgbDN8U7DZsC-t68-111" vertex="1">
          <mxGeometry y="26" width="140" height="26" as="geometry" />
        </mxCell>
        <mxCell id="rrzI_8woT9w4Hoa1EaJm-25" value="ID do Pedido" style="text;strokeColor=none;fillColor=none;align=left;verticalAlign=top;spacingLeft=4;spacingRight=4;overflow=hidden;rotatable=0;points=[[0,0.5],[1,0.5]];portConstraint=eastwest;whiteSpace=wrap;html=1;" vertex="1" parent="clQgSgbDN8U7DZsC-t68-111">
          <mxGeometry y="52" width="140" height="26" as="geometry" />
        </mxCell>
        <mxCell id="rrzI_8woT9w4Hoa1EaJm-24" value="Condição" style="text;strokeColor=none;fillColor=none;align=left;verticalAlign=top;spacingLeft=4;spacingRight=4;overflow=hidden;rotatable=0;points=[[0,0.5],[1,0.5]];portConstraint=eastwest;whiteSpace=wrap;html=1;" vertex="1" parent="clQgSgbDN8U7DZsC-t68-111">
          <mxGeometry y="78" width="140" height="26" as="geometry" />
        </mxCell>
        <mxCell id="clQgSgbDN8U7DZsC-t68-115" style="edgeStyle=orthogonalEdgeStyle;rounded=0;orthogonalLoop=1;jettySize=auto;html=1;entryX=1.007;entryY=0.111;entryDx=0;entryDy=0;entryPerimeter=0;endArrow=none;endFill=0;" parent="1" source="clQgSgbDN8U7DZsC-t68-25" edge="1">
          <mxGeometry relative="1" as="geometry">
            <Array as="points">
              <mxPoint x="790" y="-1857" />
            </Array>
            <mxPoint x="789" y="-1950" as="sourcePoint" />
            <mxPoint x="209.99999999999991" y="-1857.114" as="targetPoint" />
          </mxGeometry>
        </mxCell>
        <mxCell id="clQgSgbDN8U7DZsC-t68-117" value="1" style="edgeLabel;html=1;align=center;verticalAlign=middle;resizable=0;points=[];" parent="clQgSgbDN8U7DZsC-t68-115" vertex="1" connectable="0">
          <mxGeometry x="-0.9056" relative="1" as="geometry">
            <mxPoint as="offset" />
          </mxGeometry>
        </mxCell>
        <mxCell id="clQgSgbDN8U7DZsC-t68-121" value="1" style="edgeLabel;html=1;align=center;verticalAlign=middle;resizable=0;points=[];" parent="clQgSgbDN8U7DZsC-t68-115" vertex="1" connectable="0">
          <mxGeometry x="0.9371" relative="1" as="geometry">
            <mxPoint as="offset" />
          </mxGeometry>
        </mxCell>
        <mxCell id="clQgSgbDN8U7DZsC-t68-116" style="edgeStyle=orthogonalEdgeStyle;rounded=0;orthogonalLoop=1;jettySize=auto;html=1;entryX=0.5;entryY=0;entryDx=0;entryDy=0;endArrow=none;endFill=0;" parent="1" source="clQgSgbDN8U7DZsC-t68-94" target="clQgSgbDN8U7DZsC-t68-111" edge="1">
          <mxGeometry relative="1" as="geometry">
            <Array as="points">
              <mxPoint x="140" y="-2080" />
              <mxPoint x="140" y="-2080" />
            </Array>
          </mxGeometry>
        </mxCell>
        <mxCell id="clQgSgbDN8U7DZsC-t68-122" value="1" style="edgeLabel;html=1;align=center;verticalAlign=middle;resizable=0;points=[];" parent="clQgSgbDN8U7DZsC-t68-116" vertex="1" connectable="0">
          <mxGeometry x="-0.8765" y="-3" relative="1" as="geometry">
            <mxPoint y="-1" as="offset" />
          </mxGeometry>
        </mxCell>
        <mxCell id="rrzI_8woT9w4Hoa1EaJm-21" value="*" style="edgeLabel;html=1;align=center;verticalAlign=middle;resizable=0;points=[];" vertex="1" connectable="0" parent="clQgSgbDN8U7DZsC-t68-116">
          <mxGeometry x="0.6379" y="-2" relative="1" as="geometry">
            <mxPoint as="offset" />
          </mxGeometry>
        </mxCell>
        <mxCell id="clQgSgbDN8U7DZsC-t68-125" style="edgeStyle=orthogonalEdgeStyle;rounded=0;orthogonalLoop=1;jettySize=auto;html=1;entryX=0.477;entryY=0.962;entryDx=0;entryDy=0;entryPerimeter=0;endArrow=block;endFill=0;strokeColor=#000000;" parent="1" source="clQgSgbDN8U7DZsC-t68-91" target="clQgSgbDN8U7DZsC-t68-64" edge="1">
          <mxGeometry relative="1" as="geometry" />
        </mxCell>
        <mxCell id="clQgSgbDN8U7DZsC-t68-126" style="edgeStyle=orthogonalEdgeStyle;rounded=0;orthogonalLoop=1;jettySize=auto;html=1;endArrow=none;endFill=0;" parent="1" source="clQgSgbDN8U7DZsC-t68-95" edge="1">
          <mxGeometry relative="1" as="geometry">
            <mxPoint x="240" y="-2280" as="targetPoint" />
            <Array as="points">
              <mxPoint x="330" y="-2280" />
              <mxPoint x="236" y="-2280" />
            </Array>
          </mxGeometry>
        </mxCell>
        <mxCell id="clQgSgbDN8U7DZsC-t68-131" value="Devolução" style="swimlane;fontStyle=0;childLayout=stackLayout;horizontal=1;startSize=26;fillColor=none;horizontalStack=0;resizeParent=1;resizeParentMax=0;resizeLast=0;collapsible=1;marginBottom=0;whiteSpace=wrap;html=1;" parent="1" vertex="1">
          <mxGeometry x="560" y="-1850" width="140" height="156" as="geometry" />
        </mxCell>
        <mxCell id="clQgSgbDN8U7DZsC-t68-132" value="ID da Devolução" style="text;strokeColor=none;fillColor=none;align=left;verticalAlign=top;spacingLeft=4;spacingRight=4;overflow=hidden;rotatable=0;points=[[0,0.5],[1,0.5]];portConstraint=eastwest;whiteSpace=wrap;html=1;" parent="clQgSgbDN8U7DZsC-t68-131" vertex="1">
          <mxGeometry y="26" width="140" height="26" as="geometry" />
        </mxCell>
        <mxCell id="rrzI_8woT9w4Hoa1EaJm-27" value="ID do Pedido" style="text;strokeColor=none;fillColor=none;align=left;verticalAlign=top;spacingLeft=4;spacingRight=4;overflow=hidden;rotatable=0;points=[[0,0.5],[1,0.5]];portConstraint=eastwest;whiteSpace=wrap;html=1;" vertex="1" parent="clQgSgbDN8U7DZsC-t68-131">
          <mxGeometry y="52" width="140" height="26" as="geometry" />
        </mxCell>
        <mxCell id="rrzI_8woT9w4Hoa1EaJm-26" value="Staus" style="text;strokeColor=none;fillColor=none;align=left;verticalAlign=top;spacingLeft=4;spacingRight=4;overflow=hidden;rotatable=0;points=[[0,0.5],[1,0.5]];portConstraint=eastwest;whiteSpace=wrap;html=1;" vertex="1" parent="clQgSgbDN8U7DZsC-t68-131">
          <mxGeometry y="78" width="140" height="26" as="geometry" />
        </mxCell>
        <mxCell id="clQgSgbDN8U7DZsC-t68-134" value="Data de requisição&amp;nbsp;" style="text;strokeColor=none;fillColor=none;align=left;verticalAlign=top;spacingLeft=4;spacingRight=4;overflow=hidden;rotatable=0;points=[[0,0.5],[1,0.5]];portConstraint=eastwest;whiteSpace=wrap;html=1;" parent="clQgSgbDN8U7DZsC-t68-131" vertex="1">
          <mxGeometry y="104" width="140" height="26" as="geometry" />
        </mxCell>
        <mxCell id="clQgSgbDN8U7DZsC-t68-135" value="Data de conclusão" style="text;strokeColor=none;fillColor=none;align=left;verticalAlign=top;spacingLeft=4;spacingRight=4;overflow=hidden;rotatable=0;points=[[0,0.5],[1,0.5]];portConstraint=eastwest;whiteSpace=wrap;html=1;" parent="clQgSgbDN8U7DZsC-t68-131" vertex="1">
          <mxGeometry y="130" width="140" height="26" as="geometry" />
        </mxCell>
        <mxCell id="clQgSgbDN8U7DZsC-t68-136" style="edgeStyle=orthogonalEdgeStyle;rounded=0;orthogonalLoop=1;jettySize=auto;html=1;endArrow=none;endFill=0;" parent="1" source="clQgSgbDN8U7DZsC-t68-95" target="clQgSgbDN8U7DZsC-t68-131" edge="1">
          <mxGeometry relative="1" as="geometry">
            <Array as="points">
              <mxPoint x="330" y="-1785" />
            </Array>
          </mxGeometry>
        </mxCell>
        <mxCell id="clQgSgbDN8U7DZsC-t68-137" value="1" style="edgeLabel;html=1;align=center;verticalAlign=middle;resizable=0;points=[];" parent="clQgSgbDN8U7DZsC-t68-136" vertex="1" connectable="0">
          <mxGeometry x="-0.9498" y="-1" relative="1" as="geometry">
            <mxPoint as="offset" />
          </mxGeometry>
        </mxCell>
        <mxCell id="rrzI_8woT9w4Hoa1EaJm-20" value="*" style="edgeLabel;html=1;align=center;verticalAlign=middle;resizable=0;points=[];" vertex="1" connectable="0" parent="clQgSgbDN8U7DZsC-t68-136">
          <mxGeometry x="0.8342" y="1" relative="1" as="geometry">
            <mxPoint as="offset" />
          </mxGeometry>
        </mxCell>
        <mxCell id="clQgSgbDN8U7DZsC-t68-139" style="edgeStyle=orthogonalEdgeStyle;rounded=0;orthogonalLoop=1;jettySize=auto;html=1;endArrow=none;endFill=0;" parent="1" source="clQgSgbDN8U7DZsC-t68-29" target="clQgSgbDN8U7DZsC-t68-131" edge="1">
          <mxGeometry relative="1" as="geometry">
            <Array as="points">
              <mxPoint x="820" y="-1785" />
            </Array>
          </mxGeometry>
        </mxCell>
        <mxCell id="clQgSgbDN8U7DZsC-t68-140" value="1,*" style="edgeLabel;html=1;align=center;verticalAlign=middle;resizable=0;points=[];" parent="clQgSgbDN8U7DZsC-t68-139" vertex="1" connectable="0">
          <mxGeometry x="-0.8307" y="1" relative="1" as="geometry">
            <mxPoint as="offset" />
          </mxGeometry>
        </mxCell>
        <mxCell id="clQgSgbDN8U7DZsC-t68-142" value="0, *" style="edgeLabel;html=1;align=center;verticalAlign=middle;resizable=0;points=[];" parent="clQgSgbDN8U7DZsC-t68-139" vertex="1" connectable="0">
          <mxGeometry x="0.8997" relative="1" as="geometry">
            <mxPoint as="offset" />
          </mxGeometry>
        </mxCell>
        <mxCell id="rrzI_8woT9w4Hoa1EaJm-8" value="Pagamento" style="swimlane;fontStyle=0;childLayout=stackLayout;horizontal=1;startSize=26;fillColor=none;horizontalStack=0;resizeParent=1;resizeParentMax=0;resizeLast=0;collapsible=1;marginBottom=0;whiteSpace=wrap;html=1;" vertex="1" parent="1">
          <mxGeometry x="480" y="-2080" width="140" height="106" as="geometry" />
        </mxCell>
        <mxCell id="rrzI_8woT9w4Hoa1EaJm-9" value="Método de Pagamento" style="text;strokeColor=none;fillColor=none;align=left;verticalAlign=top;spacingLeft=4;spacingRight=4;overflow=hidden;rotatable=0;points=[[0,0.5],[1,0.5]];portConstraint=eastwest;whiteSpace=wrap;html=1;" vertex="1" parent="rrzI_8woT9w4Hoa1EaJm-8">
          <mxGeometry y="26" width="140" height="26" as="geometry" />
        </mxCell>
        <mxCell id="rrzI_8woT9w4Hoa1EaJm-10" value="Status do Pagamento" style="text;strokeColor=none;fillColor=none;align=left;verticalAlign=top;spacingLeft=4;spacingRight=4;overflow=hidden;rotatable=0;points=[[0,0.5],[1,0.5]];portConstraint=eastwest;whiteSpace=wrap;html=1;" vertex="1" parent="rrzI_8woT9w4Hoa1EaJm-8">
          <mxGeometry y="52" width="140" height="26" as="geometry" />
        </mxCell>
        <mxCell id="rrzI_8woT9w4Hoa1EaJm-11" value="Valor do Pagamento" style="text;strokeColor=none;fillColor=none;align=left;verticalAlign=top;spacingLeft=4;spacingRight=4;overflow=hidden;rotatable=0;points=[[0,0.5],[1,0.5]];portConstraint=eastwest;whiteSpace=wrap;html=1;" vertex="1" parent="rrzI_8woT9w4Hoa1EaJm-8">
          <mxGeometry y="78" width="140" height="26" as="geometry" />
        </mxCell>
        <mxCell id="rrzI_8woT9w4Hoa1EaJm-13" value="&lt;div&gt;&lt;br&gt;&lt;/div&gt;" style="text;strokeColor=none;fillColor=none;align=left;verticalAlign=top;spacingLeft=4;spacingRight=4;overflow=hidden;rotatable=0;points=[[0,0.5],[1,0.5]];portConstraint=eastwest;whiteSpace=wrap;html=1;" vertex="1" parent="rrzI_8woT9w4Hoa1EaJm-8">
          <mxGeometry y="104" width="140" height="2" as="geometry" />
        </mxCell>
        <mxCell id="rrzI_8woT9w4Hoa1EaJm-17" style="edgeStyle=orthogonalEdgeStyle;rounded=0;orthogonalLoop=1;jettySize=auto;html=1;endArrow=none;endFill=0;" edge="1" parent="1" source="clQgSgbDN8U7DZsC-t68-28" target="rrzI_8woT9w4Hoa1EaJm-8">
          <mxGeometry relative="1" as="geometry" />
        </mxCell>
        <mxCell id="rrzI_8woT9w4Hoa1EaJm-18" value="1,1" style="edgeLabel;html=1;align=center;verticalAlign=middle;resizable=0;points=[];" vertex="1" connectable="0" parent="rrzI_8woT9w4Hoa1EaJm-17">
          <mxGeometry x="0.699" y="1" relative="1" as="geometry">
            <mxPoint as="offset" />
          </mxGeometry>
        </mxCell>
      </root>
    </mxGraphModel>
  </diagram>
</mxfile>
